<svg xmlns="http://www.w3.org/2000/svg" width="48" height="16" viewBox="0 0 48 16">
    <g fill="none" fill-rule="evenodd">
        <g fill="#222">
            <path d="M32 5H16l.543 9.711c.041.725.579 1.289 1.228 1.289H30.23c.649 0 1.186-.563 1.227-1.287L32 5zm-1.058 1l-.484 8.657c-.012.212-.141.343-.228.343H17.771c-.087 0-.217-.131-.229-.345L17.058 6h13.884z"/>
            <path d="M24.6 0h-1.199C21.367 0 20 1.391 20 3.462V6h8V3.462C28 1.358 26.665 0 24.6 0m0 1c1.474 0 2.4.896 2.4 2.462V5h-6V3.462C21 1.915 21.927 1 23.401 1H24.6"/>
        </g>
        <g fill="#999">
            <path d="M16 5H0l.543 9.711C.584 15.436 1.122 16 1.771 16H14.23c.649 0 1.186-.563 1.227-1.287L16 5zm-1.058 1l-.484 8.657c-.012.212-.141.343-.228.343H1.771c-.087 0-.217-.131-.229-.345L1.058 6h13.884z"/>
            <path d="M8.6 0H7.401C5.367 0 4 1.391 4 3.462V6h8V3.462C12 1.358 10.665 0 8.6 0m0 1c1.474 0 2.4.896 2.4 2.462V5H5V3.462C5 1.915 5.927 1 7.401 1H8.6"/>
        </g>
        <g fill="#222">
            <path d="M48 5H32l.543 9.711c.041.725.579 1.289 1.228 1.289H46.23c.649 0 1.186-.563 1.227-1.287L48 5z"/>
            <path d="M40.6 0h-1.199C37.367 0 36 1.391 36 3.462V6h8V3.462C44 1.358 42.665 0 40.6 0m0 1c1.474 0 2.4.896 2.4 2.462V5h-6V3.462C37 1.915 37.927 1 39.401 1H40.6"/>
        </g>
    </g>
</svg>
